<?xml version="1.0" encoding="UTF-8" standalone="no"?>
<!-- Created with Inkscape (http://www.inkscape.org/) -->

<svg
   xmlns:dc="http://purl.org/dc/elements/1.1/"
   xmlns:cc="http://creativecommons.org/ns#"
   xmlns:rdf="http://www.w3.org/1999/02/22-rdf-syntax-ns#"
   xmlns:svg="http://www.w3.org/2000/svg"
   xmlns="http://www.w3.org/2000/svg"
   xmlns:sodipodi="http://sodipodi.sourceforge.net/DTD/sodipodi-0.dtd"
   xmlns:inkscape="http://www.inkscape.org/namespaces/inkscape"
   width="210mm"
   height="297mm"
   viewBox="0 0 210 297"
   version="1.1"
   id="svg8"
   inkscape:version="0.92.1 r15371"
   sodipodi:docname="geoQuizz.svg"
   inkscape:export-filename="C:\wamp64\www\GeoQuizz\front\ressources\geoQuizz.png"
   inkscape:export-xdpi="96"
   inkscape:export-ydpi="96">
  <defs
     id="defs2" />
  <sodipodi:namedview
     id="base"
     pagecolor="#ffffff"
     bordercolor="#666666"
     borderopacity="1.0"
     inkscape:pageopacity="0.0"
     inkscape:pageshadow="2"
     inkscape:zoom="0.35355339"
     inkscape:cx="425.76436"
     inkscape:cy="584.06481"
     inkscape:document-units="mm"
     inkscape:current-layer="layer1"
     showgrid="false"
     inkscape:snap-text-baseline="true"
     inkscape:window-width="1920"
     inkscape:window-height="1001"
     inkscape:window-x="-9"
     inkscape:window-y="-9"
     inkscape:window-maximized="1"
     inkscape:object-nodes="false"
     inkscape:snap-nodes="true"
     inkscape:snap-others="false"
     inkscape:snap-global="true" />
  <metadata
     id="metadata5">
    <rdf:RDF>
      <cc:Work
         rdf:about="">
        <dc:format>image/svg+xml</dc:format>
        <dc:type
           rdf:resource="http://purl.org/dc/dcmitype/StillImage" />
        <dc:title></dc:title>
      </cc:Work>
    </rdf:RDF>
  </metadata>
  <g
     inkscape:label="Calque 1"
     inkscape:groupmode="layer"
     id="layer1">
    <g
       id="g5299"
       transform="rotate(-15,463.56793,55.444356)"
       inkscape:export-xdpi="132.73753"
       inkscape:export-ydpi="132.73753">
      <path
         style="opacity:1;fill:#683a1c;fill-opacity:1;stroke:none;stroke-width:0.2822867"
         d="M 158.75,41.412497 H 77.258336 V 69.722912 H 158.75 l -3.175,-14.155208 z"
         id="path5033"
         inkscape:connector-curvature="0"
         sodipodi:nodetypes="cccccc" />
      <path
         sodipodi:nodetypes="cccccc"
         inkscape:connector-curvature="0"
         id="rect5023"
         d="M 27.516666,35.32708 H 92.075001 V 63.637495 H 27.516666 l 3.175,-14.155208 z"
         style="opacity:1;fill:#a05a2c;fill-opacity:1;stroke:none;stroke-width:0.2822867" />
      <path
         id="path5035"
         d="m 77.258332,63.637458 v 6.085417 l 14.816667,-6.085417 z"
         style="opacity:1;fill:#3f2311;fill-opacity:1;stroke:none;stroke-width:0.26458332px;stroke-linecap:butt;stroke-linejoin:miter;stroke-opacity:1"
         inkscape:connector-curvature="0" />
      <path
         id="path5037"
         d="m 92.074999,41.412458 v 22.225 l 5.202782,-22.225 z"
         style="opacity:1;fill:#3f2311;fill-opacity:1;stroke:none;stroke-width:0.26458332px;stroke-linecap:butt;stroke-linejoin:miter;stroke-opacity:1"
         inkscape:connector-curvature="0" />
      <g
         transform="translate(0.52916666,0.66145834)"
         style="opacity:0.4510002;fill:#000000"
         id="g5275">
        <flowRoot
           xml:space="preserve"
           id="flowRoot5265"
           style="font-style:normal;font-variant:normal;font-weight:normal;font-stretch:normal;font-size:40px;line-height:1.25;font-family:Roboto;-inkscape-font-specification:'Roboto, Normal';font-variant-ligatures:normal;font-variant-caps:normal;font-variant-numeric:normal;font-feature-settings:normal;text-align:start;letter-spacing:0px;word-spacing:0px;writing-mode:lr-tb;text-anchor:start;opacity:1;fill:#000000;fill-opacity:1;stroke:none"
           transform="matrix(0.72183485,0,0,0.72183485,-576.4159,-238.78175)"><flowRegion
             id="flowRegion5261"
             style="font-style:normal;font-variant:normal;font-weight:normal;font-stretch:normal;font-size:40px;font-family:Roboto;-inkscape-font-specification:'Roboto, Normal';font-variant-ligatures:normal;font-variant-caps:normal;font-variant-numeric:normal;font-feature-settings:normal;text-align:start;writing-mode:lr-tb;text-anchor:start;fill:#000000"><rect
               id="rect5259"
               width="189"
               height="66"
               x="932"
               y="386.51968"
               style="font-style:normal;font-variant:normal;font-weight:normal;font-stretch:normal;font-size:40px;font-family:Roboto;-inkscape-font-specification:'Roboto, Normal';font-variant-ligatures:normal;font-variant-caps:normal;font-variant-numeric:normal;font-feature-settings:normal;text-align:start;writing-mode:lr-tb;text-anchor:start;fill:#000000" /></flowRegion><flowPara
             id="flowPara5263"
             style="font-style:normal;font-variant:normal;font-weight:normal;font-stretch:normal;font-size:40.00007629px;font-family:'League Gothic';-inkscape-font-specification:'League Gothic, Normal';font-variant-ligatures:normal;font-variant-caps:normal;font-variant-numeric:normal;font-feature-settings:normal;text-align:start;writing-mode:lr-tb;text-anchor:start;fill:#000000">QUIZZ</flowPara></flowRoot>        <g
           id="g5273"
           style="font-style:normal;font-variant:normal;font-weight:normal;font-stretch:normal;font-size:40px;line-height:1.25;font-family:Roboto;-inkscape-font-specification:'Roboto, Normal';font-variant-ligatures:normal;font-variant-caps:normal;font-variant-numeric:normal;font-feature-settings:normal;text-align:start;letter-spacing:0px;word-spacing:0px;writing-mode:lr-tb;text-anchor:start;opacity:1;fill:#000000;fill-opacity:1;stroke:none"
           transform="matrix(0.72183485,0,0,0.72183485,-628.83188,-244.17421)"
           aria-label="GEO">
          <path
             inkscape:connector-curvature="0"
             id="path5267"
             style="font-style:normal;font-variant:normal;font-weight:normal;font-stretch:normal;font-size:40.00007629px;font-family:'League Gothic';-inkscape-font-specification:'League Gothic, Normal';font-variant-ligatures:normal;font-variant-caps:normal;font-variant-numeric:normal;font-feature-settings:normal;text-align:start;writing-mode:lr-tb;text-anchor:start;fill:#000000"
             d="m 940.52002,402.6795 v -4.52001 c 0,-0.8 -0.16,-1.36001 -0.56,-1.84001 -0.20001,-0.2 -0.52001,-0.32 -0.88001,-0.32 -0.76,0 -1.12,0.56 -1.28,1.08 -0.12,0.32001 -0.16,0.68001 -0.16,1.08001 v 17.68003 c 0,0.84 0.2,1.4 0.6,1.84 0.2,0.2 0.48,0.32 0.84,0.32 0.76,0 1.12001,-0.48 1.28001,-1.08 0.12,-0.28 0.16,-0.64 0.16,-1.08 v -5.32001 h -1.72001 v -3.64001 h 6.04001 v 14.64003 h -2.56 l -0.52,-1.4 c -0.8,1 -1.96001,1.72 -3.36001,1.72 -1.4,0 -2.36,-0.36 -3.08,-1 -0.72001,-0.6 -1.20001,-1.36 -1.52001,-2.16 -0.36,-0.92001 -0.52,-2.00001 -0.48,-3.20001 v -17.32003 c 0.04,-1.16001 0.28,-2.24001 0.72,-3.16001 0.36,-0.8 0.88001,-1.6 1.68001,-2.2 0.8,-0.6 1.92,-1.00001 3.36,-1.00001 1.44001,0 2.52001,0.40001 3.32001,1.00001 0.8,0.6 1.36,1.4 1.72,2.2 0.44,0.92 0.68,2 0.72,3.16001 v 4.52001 z" />
          <path
             inkscape:connector-curvature="0"
             id="path5269"
             style="font-style:normal;font-variant:normal;font-weight:normal;font-stretch:normal;font-size:40.00007629px;font-family:'League Gothic';-inkscape-font-specification:'League Gothic, Normal';font-variant-ligatures:normal;font-variant-caps:normal;font-variant-numeric:normal;font-feature-settings:normal;text-align:start;writing-mode:lr-tb;text-anchor:start;fill:#000000"
             d="m 947.97503,392.11948 h 9.88002 v 4.44 h -5.56001 v 7.72002 h 4.00001 v 4.72001 h -4.00001 v 8.08001 h 5.56001 v 4.44001 h -9.88002 z" />
          <path
             inkscape:connector-curvature="0"
             id="path5271"
             style="font-style:normal;font-variant:normal;font-weight:normal;font-stretch:normal;font-size:40.00007629px;font-family:'League Gothic';-inkscape-font-specification:'League Gothic, Normal';font-variant-ligatures:normal;font-variant-caps:normal;font-variant-numeric:normal;font-feature-settings:normal;text-align:start;writing-mode:lr-tb;text-anchor:start;fill:#000000"
             d="m 971.4807,415.47952 c -0.04,1.2 -0.28,2.28 -0.72,3.20001 -0.36,0.8 -0.92,1.56 -1.72,2.16 -0.80001,0.64 -1.88001,1 -3.32001,1 -1.44,0 -2.56,-0.36 -3.36001,-1 -0.8,-0.6 -1.32,-1.36 -1.68,-2.16 -0.44,-0.92001 -0.68,-2.00001 -0.72,-3.20001 v -17.32003 c 0.04,-1.16001 0.28,-2.24001 0.72,-3.16001 0.36,-0.8 0.88,-1.6 1.68,-2.2 0.80001,-0.6 1.92001,-1.00001 3.36001,-1.00001 1.44,0 2.52,0.40001 3.32001,1.00001 0.8,0.6 1.36,1.4 1.72,2.2 0.44,0.92 0.68,2 0.72,3.16001 z m -4.32001,-17.32003 c 0,-0.8 -0.16,-1.36001 -0.56,-1.84001 -0.2,-0.2 -0.52,-0.32 -0.88,-0.32 -0.76,0 -1.12,0.56 -1.28,1.08 -0.12,0.32001 -0.16,0.68001 -0.16,1.08001 v 17.32003 c 0,0.84 0.2,1.4 0.6,1.84 0.2,0.2 0.48,0.32 0.84,0.32 0.76,0 1.12,-0.48 1.28,-1.08 0.12,-0.28 0.16,-0.64 0.16,-1.08 z" />
        </g>
      </g>
      <g
         id="g5257">
        <flowRoot
           transform="matrix(0.72183485,0,0,0.72183485,-576.4159,-238.78175)"
           style="font-style:normal;font-variant:normal;font-weight:normal;font-stretch:normal;font-size:40px;line-height:1.25;font-family:Roboto;-inkscape-font-specification:'Roboto, Normal';font-variant-ligatures:normal;font-variant-caps:normal;font-variant-numeric:normal;font-feature-settings:normal;text-align:start;letter-spacing:0px;word-spacing:0px;writing-mode:lr-tb;text-anchor:start;opacity:1;fill:#ffffff;fill-opacity:1;stroke:none"
           id="flowRoot5021"
           xml:space="preserve"><flowRegion
             style="font-style:normal;font-variant:normal;font-weight:normal;font-stretch:normal;font-size:40px;font-family:Roboto;-inkscape-font-specification:'Roboto, Normal';font-variant-ligatures:normal;font-variant-caps:normal;font-variant-numeric:normal;font-feature-settings:normal;text-align:start;writing-mode:lr-tb;text-anchor:start;fill:#ffffff"
             id="flowRegion5017"><rect
               style="font-style:normal;font-variant:normal;font-weight:normal;font-stretch:normal;font-size:40px;font-family:Roboto;-inkscape-font-specification:'Roboto, Normal';font-variant-ligatures:normal;font-variant-caps:normal;font-variant-numeric:normal;font-feature-settings:normal;text-align:start;writing-mode:lr-tb;text-anchor:start;fill:#ffffff"
               y="386.51968"
               x="932"
               height="66"
               width="189"
               id="rect5015" /></flowRegion><flowPara
             style="font-style:normal;font-variant:normal;font-weight:normal;font-stretch:normal;font-size:40.00007629px;font-family:'League Gothic';-inkscape-font-specification:'League Gothic, Normal';font-variant-ligatures:normal;font-variant-caps:normal;font-variant-numeric:normal;font-feature-settings:normal;text-align:start;writing-mode:lr-tb;text-anchor:start;fill:#ffffff"
             id="flowPara5019">QUIZZ</flowPara></flowRoot>        <g
           aria-label="GEO"
           transform="matrix(0.72183485,0,0,0.72183485,-628.83188,-244.17421)"
           style="font-style:normal;font-variant:normal;font-weight:normal;font-stretch:normal;font-size:40px;line-height:1.25;font-family:Roboto;-inkscape-font-specification:'Roboto, Normal';font-variant-ligatures:normal;font-variant-caps:normal;font-variant-numeric:normal;font-feature-settings:normal;text-align:start;letter-spacing:0px;word-spacing:0px;writing-mode:lr-tb;text-anchor:start;opacity:1;fill:#ffffff;fill-opacity:1;stroke:none"
           id="flowRoot4758">
          <path
             d="m 940.52002,402.6795 v -4.52001 c 0,-0.8 -0.16,-1.36001 -0.56,-1.84001 -0.20001,-0.2 -0.52001,-0.32 -0.88001,-0.32 -0.76,0 -1.12,0.56 -1.28,1.08 -0.12,0.32001 -0.16,0.68001 -0.16,1.08001 v 17.68003 c 0,0.84 0.2,1.4 0.6,1.84 0.2,0.2 0.48,0.32 0.84,0.32 0.76,0 1.12001,-0.48 1.28001,-1.08 0.12,-0.28 0.16,-0.64 0.16,-1.08 v -5.32001 h -1.72001 v -3.64001 h 6.04001 v 14.64003 h -2.56 l -0.52,-1.4 c -0.8,1 -1.96001,1.72 -3.36001,1.72 -1.4,0 -2.36,-0.36 -3.08,-1 -0.72001,-0.6 -1.20001,-1.36 -1.52001,-2.16 -0.36,-0.92001 -0.52,-2.00001 -0.48,-3.20001 v -17.32003 c 0.04,-1.16001 0.28,-2.24001 0.72,-3.16001 0.36,-0.8 0.88001,-1.6 1.68001,-2.2 0.8,-0.6 1.92,-1.00001 3.36,-1.00001 1.44001,0 2.52001,0.40001 3.32001,1.00001 0.8,0.6 1.36,1.4 1.72,2.2 0.44,0.92 0.68,2 0.72,3.16001 v 4.52001 z"
             style="font-style:normal;font-variant:normal;font-weight:normal;font-stretch:normal;font-size:40.00007629px;font-family:'League Gothic';-inkscape-font-specification:'League Gothic, Normal';font-variant-ligatures:normal;font-variant-caps:normal;font-variant-numeric:normal;font-feature-settings:normal;text-align:start;writing-mode:lr-tb;text-anchor:start;fill:#ffffff"
             id="path5025"
             inkscape:connector-curvature="0" />
          <path
             d="m 947.97503,392.11948 h 9.88002 v 4.44 h -5.56001 v 7.72002 h 4.00001 v 4.72001 h -4.00001 v 8.08001 h 5.56001 v 4.44001 h -9.88002 z"
             style="font-style:normal;font-variant:normal;font-weight:normal;font-stretch:normal;font-size:40.00007629px;font-family:'League Gothic';-inkscape-font-specification:'League Gothic, Normal';font-variant-ligatures:normal;font-variant-caps:normal;font-variant-numeric:normal;font-feature-settings:normal;text-align:start;writing-mode:lr-tb;text-anchor:start;fill:#ffffff"
             id="path5027"
             inkscape:connector-curvature="0" />
          <path
             d="m 971.4807,415.47952 c -0.04,1.2 -0.28,2.28 -0.72,3.20001 -0.36,0.8 -0.92,1.56 -1.72,2.16 -0.80001,0.64 -1.88001,1 -3.32001,1 -1.44,0 -2.56,-0.36 -3.36001,-1 -0.8,-0.6 -1.32,-1.36 -1.68,-2.16 -0.44,-0.92001 -0.68,-2.00001 -0.72,-3.20001 v -17.32003 c 0.04,-1.16001 0.28,-2.24001 0.72,-3.16001 0.36,-0.8 0.88,-1.6 1.68,-2.2 0.80001,-0.6 1.92001,-1.00001 3.36001,-1.00001 1.44,0 2.52,0.40001 3.32001,1.00001 0.8,0.6 1.36,1.4 1.72,2.2 0.44,0.92 0.68,2 0.72,3.16001 z m -4.32001,-17.32003 c 0,-0.8 -0.16,-1.36001 -0.56,-1.84001 -0.2,-0.2 -0.52,-0.32 -0.88,-0.32 -0.76,0 -1.12,0.56 -1.28,1.08 -0.12,0.32001 -0.16,0.68001 -0.16,1.08001 v 17.32003 c 0,0.84 0.2,1.4 0.6,1.84 0.2,0.2 0.48,0.32 0.84,0.32 0.76,0 1.12,-0.48 1.28,-1.08 0.12,-0.28 0.16,-0.64 0.16,-1.08 z"
             style="font-style:normal;font-variant:normal;font-weight:normal;font-stretch:normal;font-size:40.00007629px;font-family:'League Gothic';-inkscape-font-specification:'League Gothic, Normal';font-variant-ligatures:normal;font-variant-caps:normal;font-variant-numeric:normal;font-feature-settings:normal;text-align:start;writing-mode:lr-tb;text-anchor:start;fill:#ffffff"
             id="path5029"
             inkscape:connector-curvature="0" />
        </g>
      </g>
    </g>
  </g>
</svg>
